<?xml version="1.0" encoding="utf-8"?>
<!-- Generator: Adobe Illustrator 21.0.0, SVG Export Plug-In . SVG Version: 6.00 Build 0)  -->
<svg version="1.1" id="Layer_1" xmlns="http://www.w3.org/2000/svg" xmlns:xlink="http://www.w3.org/1999/xlink" x="0px" y="0px"
	 viewBox="0 0 116.3 88.5" style="enable-background:new 0 0 116.3 88.5;" xml:space="preserve">
<style type="text/css">
	.st0{fill:#E32028;}
	.st1{fill:#A6A7A7;}
	.st2{fill:none;}
	.st3{font-family:'MyriadPro-Semibold';}
	.st4{font-size:5.5px;}
</style>
<rect x="24.8" y="29.4" class="st0" width="15" height="5.8"/>
<path class="st1" d="M46.3,13.9c0,0,23.3-1.4,22.8,17.3s-14.8,19-22.8,19.2v5.3c0,0,28.7,1.9,28.5-23.6S46.3,9,46.3,9V13.9z"/>
<path d="M39.8,50.7c0,0-23.3,1.4-22.8-17.3c0.5-18.6,14.8-19,22.8-19.2V8.9c0,0-28.7-1.9-28.5,23.6s28.5,23.2,28.5,23.2V50.7z"/>
<path d="M108.1,51.2c0,0-23.3,1.4-22.8-17.3s14.8-19,22.8-19.2V9.4c0,0-28.7-1.9-28.5,23.6s28.5,23.2,28.5,23.2V51.2z"/>
<rect x="-13.3" y="62.7" class="st2" width="146.9" height="18.5"/>
<text transform="matrix(1 0 0 1 13.3162 66.5851)"><tspan x="0" y="0" class="st3 st4">INNOVATION AND ENTREPRENEURSHIP </tspan><tspan x="22.3" y="6.6" class="st3 st4">DEVELOPMENT CELL</tspan><tspan x="-4.8" y="13.2" class="st3 st4">NSS COLLEGE OF ENGINEERING, PALAKKAD</tspan></text>
</svg>
